# xmcd CD database file
#
# Track frame offsets:
#	150
#	14078
#	26180
#	44899
#	54991
#	65618
#	77651
#	97680
#	109363
#	123564
#	135354
#	145754
#	158769
#	170740
#	186017
#	195676
#	211833
#	225312
#	248579
#	260287
#
# Disc length: 3621 seconds
#
# Revision: 0
# Processed by: cddbd v1.5.1PL0 Copyright (c) Steve Scherf et al.
# Submitted via: CDex 1.51
#
DISCID=140e2314
DTITLE=Creedence Clearwater Revival - 20Super Hits
DYEAR=1900
DGENRE=Country
TTITLE0=Proud Mary
TTITLE1=Down On The Corner
TTITLE2=Midnight Special
TTITLE3=My Baby Left Me
TTITLE4=Who'll Stop The Rain
TTITLE5=Good Golly Miss Molly
TTITLE6=I Put A Spell On You
TTITLE7=Up Around The Bend
TTITLE8=Lodi
TTITLE9=Molina
TTITLE10=Bad Moon Rising
TTITLE11=Cotton Fields
TTITLE12=Comotion
TTITLE13=Lon As I Can See The Light
TTITLE14=Don't Look Now (It Ain't You Or Me)
TTITLE15=Sailor's Lament
TTITLE16=Run Through The Jungle
TTITLE17=Born On The Bayou
TTITLE18=Have You Ever Seen The Rain
TTITLE19=Lookin' Out My Back Door
EXTD=
EXTT0=
EXTT1=
EXTT2=
EXTT3=
EXTT4=
EXTT5=
EXTT6=
EXTT7=
EXTT8=
EXTT9=
EXTT10=
EXTT11=
EXTT12=
EXTT13=
EXTT14=
EXTT15=
EXTT16=
EXTT17=
EXTT18=
EXTT19=
PLAYORDER=
